<?xml version="1.0" standalone="no"?>
<!DOCTYPE svg PUBLIC "-//W3C//DTD SVG 20010904//EN"
 "http://www.w3.org/TR/2001/REC-SVG-20010904/DTD/svg10.dtd">
<svg version="1.0" xmlns="http://www.w3.org/2000/svg"
 width="512.000000pt" height="512.000000pt" viewBox="0 0 512.000000 512.000000"
 preserveAspectRatio="xMidYMid meet">
<metadata>
Created by potrace 1.14, written by Peter Selinger 2001-2017
</metadata>
<g transform="translate(0.000000,512.000000) scale(0.100000,-0.100000)"
fill="#000000" stroke="none">
<path d="M2398 5075 c-1 -1 -40 -6 -84 -9 -45 -4 -94 -9 -108 -11 -14 -3 -37
-7 -51 -9 -263 -46 -467 -112 -700 -226 -494 -243 -891 -632 -1135 -1114 -36
-72 -75 -153 -87 -181 -67 -157 -136 -402 -159 -560 -3 -22 -7 -51 -10 -65
-25 -146 -25 -532 0 -680 3 -14 7 -43 11 -65 3 -22 7 -47 10 -55 2 -8 6 -31 9
-50 3 -19 15 -71 27 -115 11 -44 22 -87 24 -95 8 -39 71 -205 113 -300 71
-161 215 -404 311 -523 243 -302 526 -536 845 -697 209 -105 327 -150 526
-200 226 -57 374 -75 620 -75 185 0 295 9 438 35 1084 198 1911 1060 2058
2145 4 28 8 64 10 80 2 17 6 107 8 200 4 183 -3 301 -29 470 -33 224 -130 510
-251 743 -55 108 -194 330 -228 365 -6 7 -27 32 -46 57 -94 122 -239 265 -404
398 -329 267 -835 480 -1226 518 -36 3 -69 8 -73 11 -9 6 -413 14 -419 8z
m362 -139 c637 -63 1173 -335 1596 -808 207 -231 420 -619 489 -888 2 -8 11
-40 20 -70 14 -52 48 -224 59 -300 23 -160 24 -470 2 -610 -3 -14 -10 -59 -16
-100 -47 -294 -172 -615 -343 -884 -284 -449 -731 -799 -1240 -973 -103 -34
-263 -77 -331 -87 -21 -4 -48 -8 -60 -11 -20 -4 -37 -6 -171 -20 -120 -12
-490 -5 -515 10 -3 1 -27 6 -54 9 -164 22 -390 86 -566 161 -364 154 -700 411
-946 725 -322 409 -503 926 -507 1445 -1 118 7 269 17 320 2 11 7 42 10 68 6
41 13 82 32 173 43 214 195 568 329 769 116 172 268 349 410 475 389 346 909
565 1412 596 59 4 109 7 110 8 5 3 208 -3 263 -8z"/>
<path d="M3350 3643 c-14 -10 -34 -29 -45 -43 -94 -123 -182 -141 -630 -134
-154 3 -309 6 -345 7 -358 12 -630 -142 -704 -400 -6 -18 2 -26 50 -52 l57
-31 54 48 c138 120 179 141 333 168 109 18 320 25 326 10 2 -6 5 -306 7 -666
2 -590 4 -661 20 -715 47 -158 139 -276 263 -336 66 -32 74 -34 184 -34 l115
0 87 43 c102 50 192 132 250 229 l37 62 -57 50 c-31 28 -61 51 -67 51 -5 0
-19 -13 -29 -29 -26 -39 -100 -87 -162 -104 -161 -47 -307 59 -343 249 -6 27
-10 310 -11 629 l0 580 331 0 c182 -1 332 2 335 6 4 7 38 160 50 229 5 22 25
117 39 178 5 21 3 22 -58 22 -43 0 -70 -5 -87 -17z"/>
</g>
</svg>
